<?xml version="1.0" encoding="UTF-8"?>
<!DOCTYPE svg PUBLIC "-//W3C//DTD SVG 1.1//EN" "http://www.w3.org/Graphics/SVG/1.1/DTD/svg11.dtd">
<!-- Creator: CorelDRAW 2020 (64-Bit) -->
<svg xmlns="http://www.w3.org/2000/svg" xml:space="preserve" width="1149px" height="1149px" version="1.1" shape-rendering="geometricPrecision" text-rendering="geometricPrecision" image-rendering="optimizeQuality" fill-rule="evenodd" clip-rule="evenodd"
viewBox="0 0 90057.11 90057.94"
 xmlns:xlink="http://www.w3.org/1999/xlink"
 xmlns:xodm="http://www.corel.com/coreldraw/odm/2003">
 <g id="Layer_x0020_1">
  <metadata id="CorelCorpID_0Corel-Layer"/>
  <g id="_1366854774688">
   <path fill="#5A5B5C" fill-rule="nonzero" d="M90057.11 45028.51c0,24868.9 -20160.35,45028.6 -45028.6,45028.6 -24868.9,0 -45028.51,-20159.7 -45028.51,-45028.6 0,-24868.9 20159.61,-45028.51 45028.51,-45028.51 24868.25,0 45028.6,20159.61 45028.6,45028.51zm0 0z"/>
   <path fill="#444545" fill-rule="nonzero" d="M45028.51 86539.21c-24279.31,0 -44067.31,-19216.92 -44991.39,-43269.56 -22.68,584.04 -37.12,1169.36 -37.12,1758.86 0,24868.25 20159.61,45028.6 45028.51,45028.6 24868.25,0 45028.6,-20160.35 45028.6,-45028.6 0,-589.5 -15.09,-1174.82 -37.86,-1758.86 -924.08,24052.64 -20711.98,43269.56 -44990.74,43269.56zm0 0z"/>
   <path fill="#232222" fill-rule="nonzero" d="M56887.53 18044.13c-511.84,-1978.77 -2696.08,-4784.17 -10971.31,-4784.17 -12785.15,0 -14605.92,1893.62 -18008.4,-1376.22 -2870.56,-2758.57 -4556.67,10518.52 -728.98,14735.22 -1615.3,5972.04 -322.93,11953.8 -322.93,11953.8l35972.19 -0.09c-0.74,0 3018.37,-13972.46 -5940.48,-20528.54l-0.09 0zm0 0z"/>
   <path fill="#3B3B3B" fill-rule="nonzero" d="M27907.17 15076.67c3403.13,3269.75 5223.16,1376.23 18008.4,1376.23 8275.88,0 10460.12,2804.65 10971.31,4784.16 4764.83,3486.25 6141.8,9070.11 6386.42,13534.77 240.47,-4618.59 -383.37,-12335.14 -6386.42,-16726.96 -511.28,-1979.51 -2695.43,-4784.17 -10971.31,-4784.17 -12785.24,0 -14605.27,1892.98 -18008.4,-1376.96 -1886.77,-1813.19 -3260.87,3300.76 -2895.36,8217.56 265.17,-3635.35 1423.61,-6439.36 2895.36,-5024.63zm0 0z"/>
   <path fill="#FCE3D1" fill-rule="nonzero" d="M30487.84 39200.76c0,0 -1550.7,-2840.47 -4652.19,-2840.47 -3101.48,0 -5298.78,13635.83 4652.19,11363.01l0 -8522.54zm0 0z"/>
   <path fill="#FCE3D1" fill-rule="nonzero" d="M59194.79 39200.76c0,0 1550.69,-2840.47 4652.18,-2840.47 3102.13,0 5298.78,13635.83 -4652.18,11363.01l0 -8522.54zm0 0z"/>
   <path fill="#FDEFE4" fill-rule="nonzero" d="M44841.64 20928.48c-23762.02,0 -19219.05,38971.22 0,38971.22 19218.4,0 23762.01,-38971.22 0,-38971.22zm0 0z"/>
   <path fill="#232222" fill-rule="nonzero" d="M44841.64 18807.45c0,0 -16162.83,-2280.42 -16162.83,18457.77 0,0 2035.14,-8571.41 6703.8,-10908.84 2174.62,-1089.02 2970.98,1669.63 9459.03,1669.63 6487.39,0 7284.4,-2758.65 9458.37,-1669.63 4669.4,2337.43 6703.89,10908.84 6703.89,10908.84 0,-20738.19 -16162.26,-18457.77 -16162.26,-18457.77zm0 0z"/>
   <path fill="#3B3B3B" fill-rule="nonzero" d="M77537.79 76182.85c-1155.02,-2830.11 -3501.43,-5098.77 -6532.11,-6095.05l-14601.85 -4797.96c-1377.52,-452.79 -2313.36,-1732.85 -2326.41,-3183.22l-52.21 -5896.51c-2440.53,2197.3 -5478.8,3559.09 -9031.69,3590.65 -3552.24,30.91 -6613.83,-1277.29 -9093.52,-3430.53l50.17 5689.65c13.05,1472.4 -928.25,2784.11 -2327.9,3243.75l-14596.3 4786.85c-3023.92,992.21 -5368.2,3250.6 -6527.93,6071.08 8196.83,8562.43 19740.51,13895.46 32530.47,13895.46 12778.39,0 24313.09,-5324.15 32509.28,-13874.17l0 0zm0 0z"/>
   <path fill="#353536" fill-rule="nonzero" d="M46601.97 90026.84c258.98,-8.97 518.04,-17.21 775.72,-30.26 152.54,-7.5 304.42,-19.9 456.21,-28.79 236.3,-14.44 472.69,-27.49 708.34,-46.09 159.38,-12.31 317.47,-28.88 476.85,-42.58 226.77,-19.9 453.53,-38.5 679.56,-61.83 162.9,-16.47 324.96,-37.11 487.12,-55.62 220.57,-24.71 440.39,-48.78 659.66,-76.92 164.84,-21.28 329.03,-46 492.58,-69.41 215.75,-30.18 431.5,-59.8 646.51,-92.75 164.2,-25.45 327,-54.33 490.55,-81.08 213.72,-35.72 427.34,-70.06 639.66,-109.21 162.9,-29.62 324.32,-61.83 487.13,-92.74 211.58,-41.28 422.61,-81.08 632.81,-125.05 161.51,-32.95 321.54,-69.42 482.41,-104.5 209.54,-46 419.74,-92.09 628.64,-140.87 158.74,-37.02 316.73,-76.91 474.82,-115.42 208.81,-51.55 417.71,-103.01 626.61,-157.34 155.96,-41.19 311.17,-84.51 466.48,-126.43 208.16,-57.02 416.42,-114.03 623.84,-173.83 152.53,-43.96 304.42,-90.7 456.95,-135.96 208.16,-62.57 416.41,-125.05 623.18,-190.3 149.11,-47.48 297.57,-96.26 445.94,-145.04 208.16,-68.02 415.68,-136.7 622.45,-208.16 145.68,-50.16 289.98,-101.62 434.92,-153.18 208.16,-73.49 415.67,-149.11 622.54,-225.37 141.52,-52.95 283.04,-107.28 424.56,-161.51 206.86,-79.7 413.63,-160.03 619.76,-242.5 138.18,-55.63 276.28,-112.64 413.63,-169.01 207.52,-85.89 414.38,-173.18 620.5,-261.75 133.93,-57.02 266.57,-115.42 399.2,-174.56 208.16,-91.36 414.93,-184.84 621.06,-279.62 129.21,-59.79 258.32,-119.58 386.14,-180.67 208.9,-98.29 417.16,-198.63 623.93,-300.25 123.66,-60.54 246.57,-121.62 369.58,-183.45 209.64,-105.15 417.8,-212.33 625.31,-320.25 118.85,-62.47 237.69,-125.04 355.88,-188.26 209.55,-111.99 417.71,-225.37 625.22,-340.05 114.13,-63.22 228.16,-127.08 342.19,-191.78 208.9,-118.1 417.71,-238.43 624.57,-360.69 109.22,-63.96 218.43,-127.82 327.74,-193.08 210.2,-125.69 419.75,-254.25 627.91,-383.37 103.11,-63.86 206.12,-128.47 308.49,-193.07 211.68,-133.93 421.87,-269.99 630.78,-407.44 97.55,-63.86 195.1,-127.08 292.01,-191.68 212.33,-141.52 423.26,-285.82 632.81,-430.76 91.45,-63.96 183.45,-126.53 274.16,-190.39 214.36,-150.4 426.68,-303.68 637.62,-457.6 84.5,-61.09 169.01,-122.27 252.77,-184.1 216.49,-160.12 430.85,-322.93 644.48,-487.12 76.35,-58.41 153.27,-116.81 229.54,-175.95 219.17,-170.4 435.66,-343.48 651.41,-517.39 68.68,-55.63 138.74,-110.61 207.51,-166.98 222.6,-182.06 443.16,-366.89 662.34,-553.76 59.05,-50.17 118.84,-99.6 177.25,-149.76 228.06,-196.5 453.43,-395.13 677.42,-595.05 48.78,-43.96 98.29,-86.54 146.33,-130.5 234.26,-211.03 465.1,-424.65 694.64,-640.4 37.11,-35.08 74.88,-69.42 111.99,-103.76 243.89,-230.84 484.35,-465.1 723.52,-701.49 20.55,-21.29 42.58,-41.28 63.96,-61.83 257.67,-257.03 512.48,-516 764.7,-779.14 1.39,-1.39 2.68,-2.78 3.43,-3.52 -327.1,-802.46 -753.79,-1557.54 -1260.81,-2253.57 -8097.33,7805.22 -19111.87,12607.25 -31248.47,12607.25 -12145.58,0 -23166.97,-4808.88 -31264.94,-12625.76 -508.42,693.9 -936.49,1447.68 -1265.53,2248.11 2.03,2.69 5.46,5.46 7.49,7.59 250.18,261.1 503.7,519.43 759.99,774.98 28.87,28.88 59.05,57.01 87.93,85.89 230.83,228.15 463.06,454.92 698.8,678.17 47.39,44.7 95.43,88.66 142.91,132.63 219.17,206.12 439.64,410.86 662.98,612.91 59.79,54.24 120.33,106.44 180.67,160.77 212.33,190.3 426.04,379.3 642.44,564.78 70.16,61.09 142.26,120.23 213.06,179.93 207.52,176.6 416.33,352.46 627.26,524.99 79.69,65.9 161.42,129.76 241.21,194.46 204.73,164.84 409.47,329.13 616.98,490.55 87.28,68.68 175.95,134.67 263.88,202.7 201.96,155.22 405.3,309.88 610.78,461.67 94.13,70.07 190.39,138.84 285.17,208.16 200.66,146.33 401.97,291.37 604.67,434.18 101.63,71.46 204.74,141.62 307.1,212.33 198.54,138.09 399.2,274.8 600.51,409.56 107.18,71.37 215.11,141.52 322.93,212.24 198.54,130.59 397.91,259.71 598.48,387.53 113.38,71.46 227.41,142.26 341.53,212.97 197.89,123.01 396.42,244.63 595.7,364.22 118.84,70.71 238.42,140.87 357.27,210.93 197.14,116.16 396.42,230.84 595.69,344.22 123.01,70.16 245.92,138.1 369.67,206.87 198.54,109.95 397.81,219.17 598.38,325.7 126.53,67.94 254.26,134.67 381.34,201.31 199.27,103.76 398.55,206.13 599.12,307.85 131.24,65.9 263.88,131.89 396.51,196.5 198.53,97.55 398.46,194.46 598.38,288.59 136.06,64.51 272.12,128.47 408.82,190.94 199.28,91.45 398.55,182.15 599.12,270.73 140.13,61.83 280.36,123.66 421.14,184.1 199.27,85.89 399.19,169.75 600.6,252.86 143.55,59.79 288.5,118.85 433.44,177.25 199.28,79.69 399.2,157.99 599.86,235 147.72,57.02 295.44,113.38 444.55,169.01 200.66,74.23 401.88,147.07 603.29,219.17 150.4,53.59 301.64,107.18 452.69,159.39 201.41,69.41 403.36,136.05 606.06,202.7 153.93,50.16 307.85,101.07 462.42,149.75 201.96,63.96 404.66,125.05 607.36,186.23 157.34,47.39 314.04,94.87 472.68,140.87 202.7,58.4 406.79,114.03 610.14,170.4 160.12,43.31 318.86,87.92 478.89,129.85 204.82,52.85 410.21,103.76 615.68,154.57 161.42,39.89 322.93,80.43 485.09,118.2 205.39,48.13 412.25,93.39 619.02,138.83 164.2,35.73 327.75,72.84 492.59,107.18 206.87,42.58 415.03,82.47 622.54,123.01 165.58,31.56 331.17,64.51 497.49,94.78 208.81,38.5 419.1,72.19 629.29,107.27 167.07,28.14 333.3,57.02 500.92,83.12 212.33,32.95 425.3,61.83 638.37,92.09 166.97,23.33 333.2,48.69 500.82,70.07 215.75,27.49 433.54,51.55 651.42,76.26 165.58,19.26 330.42,39.9 496.75,57.02 222.6,22.77 446.58,41.28 670.57,61.18 161.42,14.44 322.93,30.17 485.83,43.22 234.26,18.61 469.27,30.92 704.91,46.1 152.54,9.62 305.81,21.29 458.99,28.88 261.75,13.69 524.89,21.93 787.38,30.91 128.47,4.07 255.55,10.92 384.12,14.35 391.6,10.36 784.6,15.82 1178.98,15.82 393.74,0 786.74,-5.46 1178.34,-15.08 131.9,-4.17 263.14,-11.02 395.13,-15.83l-0.19 -0.19zm0 0z"/>
   <path fill="#FCE3D1" fill-rule="nonzero" d="M44491.86 78066.84c7487.2,0 13873.62,-4699.66 16379.41,-11308.68l-4468.09 -1468.23c-1377.61,-452.79 -2313.45,-1733.59 -2325.76,-3183.31l-52.21 -5896.51c-2441.18,2197.3 -5478.8,3559.09 -9031.69,3590.74 -3552.98,30.91 -6614.57,-1277.28 -9093.52,-3430.62l50.17 5689.75c13.05,1472.39 -928.25,2784.01 -2327.9,3243.65l-5386.71 1766.54c2586.22,6444.08 8887.4,10996.67 16256.3,10996.67l0 0zm0 0z"/>
  </g>
 </g>
</svg>
